<svg width="792" height="612" viewBox="0 0 792 612" fill="none" xmlns="http://www.w3.org/2000/svg">
<g id="Frame">
<g id="Layer 2">
<path id="Vector" d="M792 0H0V612H792V0Z" fill="white"/>
</g>
<path id="line3" d="M416.231 271.7C422.346 258.712 431.834 247.604 443.705 239.538C455.575 231.471 469.393 226.742 483.715 225.844C498.036 224.946 512.336 227.912 525.12 234.432C537.905 240.952 548.705 250.787 556.393 262.91C564.081 275.033 568.374 288.999 568.825 303.35C569.276 317.7 565.867 331.908 558.955 344.49C552.043 357.072 541.881 367.566 529.531 374.877C517.181 382.187 503.095 386.045 488.746 386.049C468.275 386.049 448.857 379.159 435.435 365.738C431.12 361.428 427.05 356.879 423.245 352.112L346.907 275.732C341.281 267.67 333.534 261.325 324.524 257.399C315.514 253.473 305.594 252.121 295.863 253.492C286.132 254.862 276.971 258.902 269.395 265.164C261.818 271.426 256.123 279.665 252.941 288.967C249.758 298.269 249.212 308.272 251.364 317.866C253.516 327.459 258.281 336.269 265.131 343.319C271.981 350.369 280.648 355.383 290.172 357.805C299.696 360.227 309.705 359.963 319.088 357.042C320.799 356.503 343.665 348.954 352.202 327.163C353.173 324.681 353.92 322.117 354.435 319.502" stroke="#231F20" stroke-width="3" stroke-miterlimit="10"/>
<path id="line2" d="M437.24 292.721C439.761 283.092 444.928 274.363 452.156 267.523C459.383 260.684 468.381 256.007 478.13 254.024C487.878 252.041 497.987 252.83 507.31 256.303C516.633 259.776 524.797 265.793 530.875 273.672C536.954 281.552 540.705 290.977 541.702 300.881C542.699 310.784 540.902 320.769 536.516 329.703C532.13 338.637 525.329 346.162 516.886 351.425C508.442 356.689 498.694 359.479 488.746 359.481C475.547 359.481 462.826 355.381 454.178 346.72C449.901 342.44 446.291 338.435 446.291 338.435L371.115 263.21C363.147 250.551 351.796 240.378 338.347 233.84C324.899 227.302 309.89 224.661 295.019 226.216C280.148 227.771 266.009 233.46 254.202 242.639C242.396 251.818 233.392 264.12 228.212 278.153C223.031 292.187 221.88 307.391 224.889 322.045C227.897 336.699 234.945 350.218 245.235 361.072C255.525 371.925 268.646 379.68 283.113 383.459C297.58 387.238 312.816 386.89 327.095 382.454C330.902 381.264 357.48 372.517 372.236 346.72C373.724 344.109 374.802 341.884 375.393 340.514" stroke="#231F20" stroke-width="3" stroke-miterlimit="10"/>
<path id="line1" d="M463.879 319.408C460.987 313.965 459.958 307.724 460.949 301.641C461.94 295.557 464.896 289.966 469.366 285.723C473.835 281.481 479.57 278.821 485.694 278.15C491.818 277.479 497.993 278.835 503.273 282.01C508.554 285.185 512.649 290.003 514.932 295.728C517.215 301.453 517.56 307.769 515.914 313.709C514.267 319.649 510.721 324.885 505.818 328.617C500.914 332.348 494.924 334.369 488.763 334.369C481.552 334.369 474.717 331.921 469.944 327.197C465.17 322.472 463.861 319.391 463.861 319.391L390.132 245.621C378.924 229.582 363.497 216.96 345.56 209.155C327.623 201.35 307.876 198.666 288.508 201.401C269.14 204.136 250.907 212.182 235.829 224.649C220.751 237.115 209.417 253.515 203.083 272.031C196.748 290.547 195.661 310.456 199.942 329.552C204.223 348.648 213.704 366.186 227.335 380.222C240.965 394.258 258.214 404.243 277.169 409.073C296.124 413.902 316.045 413.386 334.725 407.583C340.269 405.871 371.423 395.6 391.098 365.601C392.681 363.187 393.861 361.133 394.614 359.781" stroke="#231F20" stroke-width="3" stroke-miterlimit="10"/>
<path id="linelast" d="M328.447 293.474C331.635 299.8 332.326 307.094 330.383 313.906C328.44 320.718 324.005 326.549 317.96 330.238C311.916 333.927 304.705 335.204 297.762 333.815C290.819 332.426 284.653 328.473 280.491 322.742C276.329 317.011 274.476 309.922 275.3 302.886C276.125 295.851 279.566 289.383 284.94 284.77C290.314 280.158 297.226 277.739 304.302 277.994C311.377 278.249 318.098 281.16 323.126 286.148C325.143 288.4 326.912 290.862 328.404 293.491L401.723 366.851C412.903 382.92 428.313 395.576 446.245 403.416C464.176 411.255 483.927 413.972 503.308 411.265C522.688 408.557 540.941 400.531 556.04 388.077C571.139 375.623 582.495 359.227 588.849 340.709C595.203 322.19 596.305 302.273 592.034 283.165C587.763 264.058 578.286 246.508 564.654 232.462C551.022 218.415 533.767 208.422 514.804 203.589C495.841 198.757 475.91 199.275 457.223 205.085C451.175 206.968 421.201 216.931 401.62 245.92C399.695 248.779 398.267 251.236 397.343 252.87" stroke="#231F20" stroke-width="3" stroke-miterlimit="10"/>
</g>
</svg>
