<svg width="698" height="360" viewBox="0 0 698 360" fill="none" xmlns="http://www.w3.org/2000/svg">
<g id="Frame">
<rect width="698" height="360" fill="white"/>
<path id="line1" d="M342.495 255.295C338.505 263.864 333.853 272.108 328.582 279.953C307.507 311.336 277.051 335.244 241.57 348.255C206.09 361.267 167.406 362.715 131.053 352.392C94.7004 342.069 62.5435 320.505 39.1846 290.785C15.8258 261.065 2.4624 224.714 1.00718 186.934C-0.448038 149.154 10.0795 111.881 31.083 80.4508C52.0865 49.0206 82.4893 25.044 117.94 11.9525C153.391 -1.13898 192.072 -2.67418 228.448 7.56661C264.824 17.8074 297.029 39.2992 320.455 68.9661C324.209 73.7463 328.229 78.3107 332.497 82.6375L355.239 105.423L370.541 120.734L379.901 130.098L391.646 141.865L409.834 159.938L455.459 205.587C460.779 210.909 465.77 216.512 470.777 222.146C479.526 232.005 491.125 238.894 503.966 241.855C516.806 244.817 530.249 243.705 542.429 238.673C554.609 233.641 564.92 224.94 571.931 213.777C578.942 202.614 582.305 189.544 581.553 176.381C580.8 163.219 575.97 150.617 567.733 140.327C559.495 130.037 548.26 122.568 535.586 118.958C522.913 115.348 509.43 115.777 497.011 120.184C484.592 124.591 473.853 132.758 466.285 143.551L449.127 160.718" stroke="white" stroke-miterlimit="10"/>
<path id="line2" d="M306.213 219.025C297.138 248.036 278.388 273.054 253.095 289.898C227.803 306.742 197.499 314.393 167.247 311.572C103.418 305.611 52.4108 253.032 48.1368 189.028C46.4079 163.885 51.905 138.772 63.9789 116.653C76.0529 94.5347 94.1998 76.334 116.277 64.1998C138.355 52.0657 163.441 46.5047 188.575 48.1733C213.71 49.8419 237.842 58.6705 258.123 73.6168C265.244 78.821 271.814 84.7408 277.731 91.2836C292.643 107.718 307.368 124.339 322.966 140.023L384.876 201.857L388.589 205.525L391.116 208.1L433.232 250.238C437.684 255.684 442.669 260.672 448.113 265.127C451.468 267.895 454.978 270.469 458.626 272.837C475.735 283.842 495.555 289.895 515.89 290.325C536.226 290.755 556.283 285.544 573.841 275.271C591.399 264.997 605.772 250.062 615.369 232.119C624.965 214.175 629.411 193.924 628.212 173.609C624.999 116.801 577.549 71.0105 520.677 69.7464C499.72 69.2716 479.062 74.785 461.126 85.6401C443.191 96.4953 428.72 112.242 419.411 131.034C414.871 140.168 411.646 149.899 409.834 159.938" stroke="white" stroke-miterlimit="10"/>
<path id="line3" d="M263.208 175.903C263.208 177.245 263.318 178.603 263.318 180.008C263.329 191.1 261.124 202.082 256.834 212.31C252.544 222.538 246.255 231.805 238.335 239.567C230.416 247.329 221.026 253.43 210.718 257.511C200.409 261.592 189.39 263.571 178.306 263.332C135.02 262.474 98.8475 227.312 96.7885 184.05C96.0022 167.991 99.878 152.048 107.948 138.145C116.018 124.241 127.937 112.972 142.267 105.697C156.598 98.4215 172.726 95.4513 188.706 97.1447C204.686 98.8381 219.835 105.123 232.324 115.24C238.724 120.418 244.332 126.507 248.967 133.312L249.076 133.469L290.1 174.452L311.111 195.474L346.379 230.745L350.529 234.912L371.555 255.997L391.116 275.583C400.064 287.496 410.651 298.084 422.562 307.031C425.9 309.559 429.348 311.947 432.904 314.148C458.324 330.484 487.907 339.153 518.119 339.118C539.881 339.094 561.407 334.605 581.367 325.93C601.328 317.255 619.299 304.578 634.17 288.681C649.041 272.784 660.497 254.005 667.829 233.504C675.162 213.004 678.215 191.217 676.802 169.489C671.576 88.8646 604.893 24.0343 524.202 21.0066C496.314 19.9381 468.638 26.2406 443.959 39.2795C419.281 52.3184 398.472 71.6333 383.629 95.279C378.496 103.329 374.125 111.84 370.573 120.702" stroke="white" stroke-miterlimit="10"/>
<path id="linelast" d="M355.239 105.423C359.178 96.8494 363.794 88.6037 369.044 80.7647C390.902 47.8201 423.04 23.0368 460.448 10.2782C497.857 -2.48049 538.433 -2.49756 575.852 10.2296C613.27 22.9568 645.429 47.713 667.315 80.6392C689.201 113.565 699.584 152.811 696.846 192.259C691.074 279.079 622.067 350.23 535.495 358.424C490.608 362.813 445.721 350.063 409.834 322.731C399.055 314.481 389.225 305.059 380.524 294.639C377.062 290.472 373.536 286.352 369.699 282.513L306.213 219.025L288.166 200.936L263.208 175.966L243.898 156.598C240.263 152.977 236.894 149.122 233.571 145.205C231.856 143.192 230.171 141.163 228.471 139.134C220.143 129.22 208.984 122.09 196.491 118.703C183.998 115.315 170.769 115.832 158.577 120.182C146.386 124.532 135.815 132.509 128.284 143.042C120.754 153.575 116.622 166.16 116.445 179.109C116.267 192.059 120.052 204.753 127.291 215.488C134.53 226.224 144.877 234.488 156.945 239.172C169.012 243.855 182.223 244.734 194.804 241.691C207.385 238.648 218.736 231.828 227.332 222.146C230.062 219.025 232.776 215.903 235.646 212.969L248.374 199.797" stroke="white" stroke-miterlimit="10"/>
</g>
</svg>
